# xmcd CD database file
#
# Track frame offsets:
#	150
#	9733
#	18935
#	27085
#	39437
#	49071
#	59173
#	70670
#	81429
#	92754
#	105879
#	116612
#	128205
#	138826
#	150877
#	163758
#	176845
#	190677
#	201188
#	213064
#	223559
#	233369
#	243418
#	254452
#	264694
#	277535
#	288769
#	298823
#	311812
#	321434
#	332670
#	344774
#
# Disc length: 4729 seconds
#
# Revision: 0
# Processed by: cddbd v1.5.2PL0 Copyright (c) Steve Scherf et al.
# Submitted via: CDex 1.51
#
DISCID=cc127720
DTITLE=Charlie Rich - The Complete Sun Masters Disc 1
DYEAR=2009
DGENRE=Country
TTITLE0=Whirlwind
TTITLE1=Philadelphia Baby
TTITLE2=Rebound
TTITLE3=Big Man
TTITLE4=Lonely Weekends
TTITLE5=Everything I Do Is Wrong
TTITLE6=School Days
TTITLE7=Gonna Be Waitin'
TTITLE8=On My Knees
TTITLE9=Stay
TTITLE10=Who Will The Next Fool Be?
TTITLE11=Caught In The Middle
TTITLE12=Just A Little Bit Sweet
TTITLE13=It's Too Late
TTITLE14=Easy Money
TTITLE15=Midnight Blues
TTITLE16=Sittin' And Thinkin'
TTITLE17=Finally Found Out
TTITLE18=There's Another Place I Can't Go
TTITLE19=I Need Your Love
TTITLE20=Sad News
TTITLE21=Red Man
TTITLE22=C.C. Rider
TTITLE23=Come Back
TTITLE24=Apple Blossom Time
TTITLE25=Break Up
TTITLE26=That's How Much I Love You
TTITLE27=Juanita
TTITLE28=Whirlwind (Undubbed)
TTITLE29=School Days (Undubbed)
TTITLE30=It's Too Late (Undubbed)
TTITLE31=Come Back (Undubbed)
EXTD=YEAR: 2009
EXTT0=
EXTT1=
EXTT2=
EXTT3=
EXTT4=
EXTT5=
EXTT6=
EXTT7=
EXTT8=
EXTT9=
EXTT10=
EXTT11=
EXTT12=
EXTT13=
EXTT14=
EXTT15=
EXTT16=
EXTT17=
EXTT18=
EXTT19=
EXTT20=
EXTT21=
EXTT22=
EXTT23=
EXTT24=
EXTT25=
EXTT26=
EXTT27=
EXTT28=
EXTT29=
EXTT30=
EXTT31=
PLAYORDER=
